# xmcd
#
# Track frame offsets: 
#        150
#        16104
#        33976
#        44197
#        61573
#        75872
#        90869
#        112175
#        124548
#        148189
#        166226
#        177551
#        192626
#        213134
#        227960
#
# Disc length: 3215 seconds
#
# Revision: 0
# Processed by: cddbd v1.5.2PL0 Copyright (c) Steve Scherf et al.
# Submitted via: ExactAudioCopy v1.3
#
DISCID=c30c8d0f
DTITLE=Ray Fuller and the Blues Rockers - Pearlene
DYEAR=1997
DGENRE=Blues
TTITLE0=Goin' Back Home
TTITLE1=Bayou Blue
TTITLE2=Pearlene
TTITLE3=Rockin' My Blues Away
TTITLE4=Cajun Girl
TTITLE5=Shake
TTITLE6=Feelin' Evil
TTITLE7=Hip Shakin' Mama
TTITLE8=Birds in the Sky
TTITLE9=Voodoo Mama
TTITLE10=Crazy in Love
TTITLE11=Down in New Orleans
TTITLE12=She's So Fine
TTITLE13=Long Dark Lonesome Road
TTITLE14=Wherever the Wind May Blow
EXTD=
EXTT0=
EXTT1=
EXTT2=
EXTT3=
EXTT4=
EXTT5=
EXTT6=
EXTT7=
EXTT8=
EXTT9=
EXTT10=
EXTT11=
EXTT12=
EXTT13=
EXTT14=
PLAYORDER=
